:SAMPLES-PER-SECOND 30
:FRAME-RANGE 1-2009
:FULLY-SPECIFIED
:DEGREES
754
root  -40.9977 38.733 -72.3859 -1.74746 -12.3204 -5.43301
RightUpLeg  -7.00972 -6.21508 2.98566
RightLeg  21.5142 1.23735 1.71714
RightFoot  -11.0377 -0.0882502 5.01356
RightToes  4.71047e-010 1.2921e-014 -6.02303e-014
Spine  10.5852 -0.516471 9.72999
Spine1  -4.70915 0.736559 -0.27615
HEad  7.03547 50.7732 -6.81653
LeftShoulder1  1.25459 -0.329645 -26.5804
LeftArm  -22.4592 -22.1417 -23.1626
LeftForeArm  21.7119 -12.2688 -10.2145
LeftHand  -0.229455 2.08186 7.82145
RightShoulder  10.6101 16.2054 47.084
RightArm  24.8454 6.05999 19.2263
RightForeArm  2.38913 28.3826 6.01544
RightHand  0.169872 -1.48154 5.35254
LeftUpLeg  -20.3845 18.7968 7.1238
LeftLeg  53.3669 1.79132 3.05235
LeftFoot  -1.95645 0.572225 -6.82424
LeftToes  2.15783e-011 -7.56106e-012 -8.20802e-012
755
root  -41.154 39.0647 -70.7004 -1.51491 -13.683 -4.53673
RightUpLeg  -2.77258 -4.83621 1.85976
RightLeg  17.4303 0.756726 1.15615
RightFoot  -11.3927 -0.074963 5.36951
RightToes  4.71047e-010 1.2921e-014 -6.02303e-014
Spine  9.70521 0.156763 9.06741
Spine1  -4.89725 1.21002 -1.55218
HEad  6.20171 50.9858 -7.53047
LeftShoulder1  1.21587 -0.164885 -27.0065
LeftArm  -17.5919 -20.1793 -22.6122
LeftForeArm  18.9408 -15.0736 -8.93828
LeftHand  -0.258789 1.98741 8.63361
RightShoulder  11.5047 17.3747 48.1998
RightArm  25.3931 6.6259 20.5181
RightForeArm  4.74743 30.5801 6.42483
RightHand  0.181233 -1.43046 5.61016
LeftUpLeg  -22.745 22.5718 4.68403
LeftLeg  42.79 2.4607 2.8218
LeftFoot  -3.44957 0.467538 -6.47463
LeftToes  2.15783e-011 -7.56106e-012 -8.20802e-012
756
root  -41.3018 39.3386 -69.0332 -1.29937 -15.0333 -3.68968
RightUpLeg  1.77817 -4.60436 0.697178
RightLeg  12.5147 -0.189857 0.486898
RightFoot  -11.0707 -0.0892763 5.9477
RightToes  4.71047e-010 1.2921e-014 -6.02303e-014
Spine  8.94831 0.819671 8.0247
Spine1  -5.03299 1.69395 -2.52489
HEad  5.55068 51.3677 -8.28994
LeftShoulder1  1.18494 -0.0115787 -27.5875
LeftArm  -11.4674 -17.6517 -22.7824
LeftForeArm  16.2914 -18.1228 -7.08882
LeftHand  -0.298296 1.78516 9.46188
RightShoulder  12.171 18.0662 49.3565
RightArm  25.9777 6.66538 21.4105
RightForeArm  6.6481 32.2627 6.74659
RightHand  0.215581 -1.00894 5.91488
LeftUpLeg  -23.5587 26.8293 1.87604
LeftLeg  28.7446 3.88812 2.6418
LeftFoot  -3.5617 0.503785 -7.09003
LeftToes  2.15783e-011 -7.56106e-012 -8.20802e-012
757
root  -41.3466 39.4626 -67.3603 -0.836924 -16.2862 -3.2545
RightUpLeg  5.88053 -4.67126 -0.334802
RightLeg  7.99334 -1.01091 0.00476635
RightFoot  -10.955 -0.0983108 7.05968
RightToes  4.71047e-010 1.2921e-014 -6.02303e-014
Spine  8.32022 1.35838 7.89562
Spine1  -5.38465 2.30056 -4.03218
HEad  5.56754 51.493 -8.4705
LeftShoulder1  1.15636 0.145686 -28.332
LeftArm  -6.26418 -14.9713 -23.5191
LeftForeArm  16.1985 -20.3786 -5.51982
LeftHand  -0.348209 1.63097 10.6493
RightShoulder  12.3843 18.0691 50.2138
RightArm  26.5574 5.82104 22.3833
RightForeArm  6.93267 32.9709 6.91562
RightHand  0.186042 -1.27784 5.51049
LeftUpLeg  -22.2055 28.2797 0.69384
LeftLeg  12.3076 9.14853 0.562685
LeftFoot  -1.85377 0.688874 -8.15893
LeftToes  2.15783e-011 -7.56106e-012 -8.20802e-012
758
root  -41.3551 39.3356 -65.5927 -0.632602 -17.4165 -3.49019
RightUpLeg  9.50513 -4.5093 -0.80011
RightLeg  5.75653 -1.87772 -0.621487
RightFoot  -11.9039 -0.0392987 8.47286
RightToes  4.71047e-010 1.2921e-014 -6.02303e-014
Spine  7.36394 1.83873 8.05479
Spine1  -4.75175 2.87717 -4.81231
HEad  5.04142 51.8067 -8.77378
LeftShoulder1  1.11743 0.316424 -28.9668
LeftArm  -4.15567 -11.7788 -24.9869
LeftForeArm  17.6671 -22.6642 -4.24814
LeftHand  -0.400794 1.32406 11.3885
RightShoulder  12.3033 17.581 51.0391
RightArm  27.5142 4.95399 23.0842
RightForeArm  5.41203 32.2309 6.80877
RightHand  0.164128 -1.36256 5.00449
LeftUpLeg  -17.5494 13.2941 7.63502
LeftLeg  -3.55335 32.6028 -8.0117
LeftFoot  -1.07378 0.886204 -9.77627
LeftToes  2.15783e-011 -7.56106e-012 -8.20802e-012
759
root  -41.2979 38.9791 -63.6962 -0.955379 -16.8948 -4.54602
RightUpLeg  13.5397 -5.05124 -1.08103
RightLeg  5.24329 -3.68474 -0.452969
RightFoot  -13.6801 0.119736 10.4006
RightToes  4.71047e-010 1.2921e-014 -6.02303e-014
Spine  6.70641 1.67844 8.59055
Spine1  -4.01542 2.7356 -4.83612
HEad  4.84698 51.6039 -8.2493
LeftShoulder1  1.06844 0.474887 -29.1855
LeftArm  -3.69226 -8.57115 -27.2277
LeftForeArm  21.3581 -23.7843 -3.97
LeftHand  -0.482426 0.844413 12.3238
RightShoulder  12.0068 16.7591 51.8252
RightArm  29.4141 3.47054 22.7787
RightForeArm  3.63841 30.6417 6.50184
RightHand  0.14469 -1.53816 4.67482
LeftUpLeg  -17.4412 12.1319 7.6365
LeftLeg  -8.94291 36.9231 -10.0887
LeftFoot  -2.025 0.945121 -11.4225
LeftToes  2.15783e-011 -7.56106e-012 -8.20802e-012
760
root  -41.2603 38.4932 -61.7926 -1.17085 -16.594 -5.12051
RightUpLeg  15.6932 -5.79136 -1.94664
RightLeg  8.08424 -4.20792 -0.701053
RightFoot  -16.3203 0.470241 13.3183
RightToes  4.71047e-010 1.2921e-014 -6.02303e-014
Spine  6.40416 2.0431 7.24398
Spine1  -4.21245 2.77863 -3.35957
HEad  5.04028 50.8436 -6.77282
LeftShoulder1  0.994468 0.673155 -29.0373
LeftArm  -2.23678 -5.07623 -29.7747
LeftForeArm  25.1037 -24.2937 -3.87693
LeftHand  -0.505308 0.789478 12.7602
RightShoulder  11.1789 15.1729 52.3528
RightArm  33.3829 1.92867 21.9929
RightForeArm  1.44795 27.9788 5.96934
RightHand  0.130352 -1.53181 4.22926
LeftUpLeg  -17.9787 12.3124 6.88524
LeftLeg  -6.70427 37.6614 -9.46361
LeftFoot  -2.21216 0.891737 -10.9791
LeftToes  2.15783e-011 -7.56106e-012 -8.20802e-012
761
root  -41.1452 38.0675 -59.8246 -1.93785 -15.4152 -5.01945
RightUpLeg  18.753 -7.04148 -4.38041
RightLeg  10.4316 -2.05071 -0.365061
RightFoot  -17.7277 0.835402 17.0275
RightToes  4.71047e-010 1.2921e-014 -6.02303e-014
Spine  5.99417 1.93998 5.10681
Spine1  -3.40472 2.62903 -2.91035
HEad  6.19787 49.4802 -4.24329
LeftShoulder1  1.00255 0.624937 -28.7238
LeftArm  -1.10744 -0.420867 -32.1481
LeftForeArm  26.8418 -24.8799 -3.90965
LeftHand  -0.521879 0.817922 13.2583
RightShoulder  10.098 13.3317 52.4736
RightArm  39.6544 -0.111802 20.8388
RightForeArm  -1.81314 24.4602 5.32735
RightHand  0.130117 -1.39388 4.05068
LeftUpLeg  -19.8613 12.5077 4.78207
LeftLeg  0.915014 32.8636 -6.16084
LeftFoot  4.22197 -0.512812 3.56395
LeftToes  2.15783e-011 -7.56106e-012 -8.20802e-012
762
root  -40.9061 37.5921 -57.9553 -2.9677 -13.0677 -3.18042
RightUpLeg  18.5686 -7.65968 -8.52278
RightLeg  19.0141 0.541882 -0.00247449
RightFoot  -18.6702 1.4139 23.7536
RightToes  4.71047e-010 1.2921e-014 -6.02303e-014
Spine  6.84544 1.68903 0.722353
Spine1  -4.43826 1.74191 -1.42786
HEad  6.91507 48.02 -2.9137
LeftShoulder1  0.9378 0.893771 -29.846
LeftArm  1.48755 3.64014 -32.4296
LeftForeArm  25.775 -24.156 -3.8131
LeftHand  -0.518868 0.793708 13.1145
RightShoulder  8.65597 10.8307 52.8301
RightArm  41.4859 -1.26227 18.6987
RightForeArm  0.31569 18.9474 8.20482
RightHand  0.123892 -1.252 3.71005
LeftUpLeg  -25.5243 21.7294 -4.13613
LeftLeg  14.5882 18.5443 2.55336
LeftFoot  5.8695 -1.86651 12.0488
LeftToes  2.15783e-011 -7.56106e-012 -8.20802e-012
763
root  -40.6145 37.1074 -56.2063 -3.57647 -9.15316 -1.42572
RightUpLeg  14.8597 -7.32831 -11.6095
RightLeg  33.0423 0.61672 0.187267
RightFoot  -14.5074 0.808132 32.0452
RightToes  4.71047e-010 1.2921e-014 -6.02303e-014
Spine  8.07288 1.4028 -2.36758
Spine1  -5.55211 1.00402 -0.883976
HEad  6.60049 45.4493 -2.43187
LeftShoulder1  0.960517 0.856889 -30.2089
LeftArm  1.75407 5.9193 -33.355
LeftForeArm  25.9664 -19.5811 -5.79294
LeftHand  -0.515386 0.462617 12.1801
RightShoulder  6.34386 7.20823 51.8577
RightArm  26.3221 -1.83274 16.773
RightForeArm  15.7925 8.77091 14.9439
RightHand  0.107314 -1.38259 3.36896
LeftUpLeg  -28.2761 20.3692 -8.87455
LeftLeg  24.4013 14.3777 7.34647
LeftFoot  1.54617 -1.37839 12.0724
LeftToes  2.15783e-011 -7.56106e-012 -8.20802e-012
